PathFileType	4	(X/Y/Z)	/Volumes/GoogleDrive/My Drive/Research/Stanford/Projects/Digital Athlete Project/Sprinting/Sprint Simulation/sprinter/subjects/JA1/experimental_data/TRC/run0700cms.trc
DataRate	CameraRate	NumFrames	NumMarkers	Units	OrigDataRate	OrigDataStartFrame	OrigNumFrames
250.000000	250.000000	4	51	mm	250.000000	104	413
Frame#	Time	LPAT			RWR			LASI			LMFS			C7			LSH			RSH			RTHLD			T7			RTHLP			RARM			LLEPI			LLMAL			P3			RELB			RFOREARM			SACR			P1			P2			RTILAT			RTHAP			LTHLP			RLEPI			RPAT			LTIAD			LFOREARM			RLMAL			RP5MT			LTHLD			RMFL			LARM			LMFL			LTOE			RTHAD			MAN			RTOE			LTILAT			LHEEL			RHEEL			RMFS			LELB			RP1MT			RTIAP			LWR			RASI			LTHAP			LTHAD			LTIAP			RTIAD			LP5MT			LP1MT			
		X1	Y1	Z1	X2	Y2	Z2	X3	Y3	Z3	X4	Y4	Z4	X5	Y5	Z5	X6	Y6	Z6	X7	Y7	Z7	X8	Y8	Z8	X9	Y9	Z9	X10	Y10	Z10	X11	Y11	Z11	X12	Y12	Z12	X13	Y13	Z13	X14	Y14	Z14	X15	Y15	Z15	X16	Y16	Z16	X17	Y17	Z17	X18	Y18	Z18	X19	Y19	Z19	X20	Y20	Z20	X21	Y21	Z21	X22	Y22	Z22	X23	Y23	Z23	X24	Y24	Z24	X25	Y25	Z25	X26	Y26	Z26	X27	Y27	Z27	X28	Y28	Z28	X29	Y29	Z29	X30	Y30	Z30	X31	Y31	Z31	X32	Y32	Z32	X33	Y33	Z33	X34	Y34	Z34	X35	Y35	Z35	X36	Y36	Z36	X37	Y37	Z37	X38	Y38	Z38	X39	Y39	Z39	X40	Y40	Z40	X41	Y41	Z41	X42	Y42	Z42	X43	Y43	Z43	X44	Y44	Z44	X45	Y45	Z45	X46	Y46	Z46	X47	Y47	Z47	X48	Y48	Z48	X49	Y49	Z49	X50	Y50	Z50	X51	Y51	Z51	
104	0.416000	-2335.699219	562.223938	134.708649	-2363.678467	998.567322	450.663635	-2538.619385	1037.061646	93.367760	-2425.619385	101.856827	212.785568	-2608.318848	1501.594604	186.088135	-2578.842285	1463.970337	14.799051	-2566.951660	1487.322632	360.338684	-2522.568359	635.023743	388.802521	-2688.337646	1321.020874	207.643997	-2558.448730	743.001587	398.149445	-2609.086426	1311.471313	458.428589	-2421.177490	532.946655	75.969986	-2525.291992	104.767868	159.938446	-2739.557129	988.373718	233.496414	-2645.777588	1187.754761	504.992340	-2521.390625	1110.088135	481.414215	-2700.450684	1073.927490	230.463715	-2721.007812	1046.513672	179.296494	-2705.096924	1043.485718	284.969727	-2674.010742	618.939087	337.273865	-2440.592041	733.719604	309.031281	-2537.874268	733.856934	35.939381	-2513.403320	508.774048	347.004669	-2450.755859	455.573151	285.876373	-2458.892334	241.532532	196.727676	-2648.441650	1040.270386	-101.697258	-2853.543457	758.436218	297.990143	-2998.062500	705.826172	341.684937	-2478.150879	638.424011	53.342113	-2924.026367	734.742920	309.637329	-2651.724365	1281.622070	-79.179634	-2456.310303	73.908722	151.465271	-2322.434570	63.888351	206.304169	-2423.729248	636.895142	300.204926	-2475.470703	1396.171753	188.603119	-3006.912598	640.889038	261.162109	-2472.662354	303.776123	110.150024	-2592.489746	78.970261	209.640594	-2838.340332	832.375366	247.794724	-2929.296631	682.713989	254.330795	-2721.241699	1166.570923	-116.302917	-3010.762207	673.207031	221.857681	-2680.706299	584.489258	250.886795	-2571.312988	862.321960	-80.798470	-2499.273926	1028.738159	298.608917	-2409.786865	786.888794	86.226021	-2367.354736	684.073792	105.819000	-2419.410156	374.149170	176.460144	-2775.232666	666.906006	238.537231	-2394.896240	37.818413	120.270805	-2361.879639	57.355957	244.555450
105	0.420000	-2316.826660	554.679443	136.252747	-2353.925781	979.190430	456.852661	-2514.433350	1035.348633	93.345779	-2423.181396	101.223228	214.904037	-2580.798096	1499.351196	185.392487	-2550.194580	1460.900269	13.941327	-2539.471680	1484.148193	360.417328	-2480.953857	635.642273	391.017578	-2661.080322	1319.153564	206.851593	-2522.339600	741.918518	399.054779	-2584.174561	1309.077148	458.283936	-2399.917725	530.208435	75.760956	-2521.612305	107.535370	162.458908	-2714.435791	985.133667	232.915131	-2624.920654	1185.914185	505.792297	-2504.798828	1100.692993	484.496277	-2675.729492	1070.625488	230.885681	-2696.482422	1044.135254	179.304886	-2679.928467	1039.721924	284.727875	-2630.870850	616.300903	340.018494	-2404.300781	737.195862	309.298218	-2518.379395	732.891846	34.679100	-2466.815918	511.065735	348.551483	-2403.280518	460.013824	286.858368	-2448.748535	241.071182	197.294388	-2604.194580	1034.672852	-101.803291	-2811.437256	753.935913	299.449707	-2955.339355	697.798462	341.034515	-2456.455078	636.353394	52.718502	-2881.685059	728.816467	310.250061	-2616.176270	1274.659058	-80.817764	-2455.184570	74.619064	153.431427	-2320.225342	62.947247	207.009155	-2382.816650	641.704102	301.214539	-2447.207275	1392.871948	189.147034	-2961.731934	633.751709	259.573914	-2464.233154	306.111786	111.582481	-2590.431885	81.715714	212.606552	-2797.464355	829.333862	250.373642	-2885.520996	677.544128	253.903961	-2682.076904	1157.211914	-118.289642	-2966.001221	666.884277	220.736862	-2635.243896	583.438599	252.331116	-2520.129883	861.110901	-79.302773	-2476.696289	1026.746948	301.829620	-2384.295898	783.024719	87.213989	-2345.594727	678.692993	106.969238	-2405.166992	372.024536	177.274536	-2731.099609	664.554138	239.681320	-2394.889893	37.930717	120.598221	-2361.520996	57.019337	244.800522
106	0.424000	-2298.673096	550.342834	136.890930	-2344.958496	961.985596	462.756439	-2490.284912	1033.722168	93.142708	-2420.815430	100.940956	216.679764	-2552.913574	1497.274048	184.688644	-2521.359375	1457.958130	13.146504	-2511.795654	1481.205078	360.561646	-2438.714355	637.639648	392.658936	-2633.870605	1317.820679	206.215027	-2485.942139	741.717285	399.858734	-2559.645020	1306.790894	458.440948	-2381.452637	528.130432	76.857071	-2519.457031	109.370773	164.117264	-2689.524170	982.151855	232.668945	-2604.616211	1184.243896	506.716034	-2488.834717	1092.516235	487.524750	-2649.753662	1067.731445	230.951309	-2671.656738	1041.590942	179.614166	-2654.694092	1036.125122	284.676636	-2587.791504	614.581299	342.098145	-2367.932617	741.434875	309.263153	-2493.486084	733.180603	34.593002	-2420.152588	514.358887	350.077850	-2355.421875	466.015289	287.933929	-2439.360352	240.454391	197.247360	-2559.518799	1030.176147	-101.624031	-2770.469727	749.055847	300.873016	-2913.357666	688.706055	340.329803	-2435.193115	636.455627	51.602821	-2840.167480	722.118469	310.765961	-2580.960449	1268.543823	-81.831741	-2453.703613	75.547440	154.819778	-2318.443359	61.765972	207.139664	-2341.671387	647.188721	302.062225	-2418.918457	1389.675049	189.650070	-2917.110596	625.182983	258.264160	-2454.527588	306.998932	112.885437	-2588.618164	84.586884	214.273239	-2758.245117	825.526917	252.317596	-2842.075928	671.296875	253.769287	-2642.099365	1148.707642	-120.296898	-2921.331787	658.578430	219.199646	-2586.692139	582.114563	254.426651	-2468.822266	861.277527	-76.783371	-2450.307617	1023.942261	301.472992	-2360.326416	780.362915	87.055138	-2326.391113	676.834229	106.614777	-2390.252197	369.225525	177.221634	-2687.944580	662.503662	240.033508	-2394.829346	38.443836	120.685753	-2361.178711	56.845703	245.185989
107	0.428000	-2281.030762	547.557861	137.367050	-2336.763672	946.946106	468.240295	-2465.840332	1032.303589	92.701988	-2419.605469	100.758163	217.426926	-2524.893799	1495.575806	184.037064	-2492.724854	1455.319336	12.238042	-2484.147461	1478.651123	360.914948	-2396.309082	640.958008	394.284393	-2606.593994	1316.843750	205.906281	-2448.930176	742.530396	400.583435	-2535.683350	1304.568604	458.741791	-2365.555908	526.913696	78.710602	-2517.731201	110.959129	164.707504	-2664.875000	979.418823	232.809631	-2584.602539	1183.107788	507.762177	-2473.515381	1085.652344	490.208923	-2624.394287	1064.704346	231.597305	-2646.721436	1039.133301	180.068237	-2629.242188	1032.687866	284.912628	-2544.735107	613.344055	343.695496	-2330.622803	746.931274	308.745544	-2470.933838	734.109009	34.237122	-2373.208740	518.970276	351.227631	-2307.415039	473.409729	288.932312	-2430.699219	239.187683	196.630920	-2514.667969	1026.930176	-101.094193	-2730.785889	743.661194	301.942017	-2871.927246	678.559692	339.547546	-2414.276123	636.337341	51.114082	-2799.740723	714.516968	311.146545	-2545.971191	1263.341187	-82.580307	-2453.043213	76.002922	155.706253	-2317.771240	61.045712	207.145523	-2301.153809	654.082153	302.605988	-2391.029297	1386.394897	190.423599	-2872.607910	615.425049	257.198212	-2445.502441	307.551666	113.833908	-2587.260986	87.304123	215.231598	-2720.726318	820.860352	254.133087	-2799.565430	664.016785	254.584793	-2602.708008	1140.790039	-121.631584	-2878.433105	648.904175	218.795456	-2542.051514	582.027588	255.335388	-2416.729736	863.423889	-74.573303	-2423.814697	1021.993042	300.739594	-2339.828857	779.229004	87.569008	-2308.360840	674.965942	105.796356	-2376.340088	366.198730	176.378403	-2646.208252	660.503357	240.008179	-2395.007080	38.397045	120.719238	-2360.880371	56.952309	245.350250
